<?xml version="1.0" encoding="iso-8859-1"?>
<!-- Uploaded to: SVG Repo, www.svgrepo.com, Generator: SVG Repo Mixer Tools -->
<svg height="800px" width="800px" version="1.1" id="Layer_1" xmlns="http://www.w3.org/2000/svg" xmlns:xlink="http://www.w3.org/1999/xlink" 
	 viewBox="0 0 256.72 256.72" xml:space="preserve">
<g>
	<g>
		<g id="XMLID_19_">
			<g>
				<path style="fill:#94C949;" d="M240.922,128.375c0,17.001-3.815,33.16-10.603,47.638c-3.694-2.463-7.269-5.196-10.603-7.839
					c-7.659-5.977-13.096-14.057-17.661-26.252c-4.626-12.375-7.119-21.987-5.256-31.628c1.171-6.127,6.097-10.813,11.804-16.22
					c2.793-2.643,5.647-5.346,8.38-8.5c3.574-4.145,5.917-9.461,8.11-14.718C235.125,87.706,240.922,107.38,240.922,128.375z"/>
				<path style="fill:#A3D661;" d="M139.098,236.206c1.141,1.322,2.253,2.583,3.274,3.815c-4.596,0.571-9.251,0.901-13.997,0.901
					c-31.328,0-59.712-12.886-80.137-33.611c1.622-0.721,3.244-1.502,4.896-2.403c5.226-2.853,9.552-7.509,13.757-12.015
					c4.986-5.346,10.152-10.873,14.748-10.873l2.914-0.03c1.021,0,2.042,0,3.124,0c11.264,0,25.231,0.33,32.619,4.355
					c2.974,1.622,4.085,11.174,4.836,17.511c0.931,7.659,1.862,15.559,5.467,21.446
					C133.061,229.358,136.155,232.842,139.098,236.206z"/>
				<path style="fill:#A3D661;" d="M137.476,24.359c0,4.385-3.574,7.839-9.431,13.126c-4.025,3.604-8.17,7.359-11.174,12.255
					c-3.484,5.707-4.535,12.615-5.557,19.283c-1.021,6.668-2.073,13.546-5.256,15.258c-8.08,4.445-21.025,4.385-32.409,4.385
					l-2.883-0.03c-11.444,0-23.518-3.004-33.13-8.29c-2.914-1.562-5.527-3.694-7.93-6.127
					c19.163-34.782,56.198-58.421,98.669-58.421c2.072,0,4.145,0.06,6.187,0.18C136.335,18.683,137.476,21.416,137.476,24.359z"/>
				<path style="fill:#AAE1E9;" d="M209.954,180.609c3.815,3.004,8.05,6.248,12.645,9.251
					c-14.658,22.347-37.005,39.167-63.287,46.707c-2.433-3.995-5.467-7.509-8.35-10.783c-2.643-3.004-5.106-5.827-6.878-8.711
					c-1.802-2.944-2.583-9.401-3.244-15.108c-1.352-11.204-2.853-23.939-12.946-29.466c-11.654-6.368-29.255-6.308-43.372-6.278
					h-2.883c-11.474,0-19.343,8.44-26.312,15.889c-3.334,3.574-6.788,7.299-9.792,8.951c-2.523,1.352-5.196,2.523-7.96,3.725
					c-13.667-18.653-21.776-41.6-21.776-66.41c0-13.757,2.493-26.943,7.029-39.137c2.223,1.832,4.596,3.544,7.209,4.986
					c12.045,6.578,26.522,10.212,40.729,10.212l2.853,0.03c0.991,0,2.012,0,3.004,0c12.555,0,26.252-0.421,37.035-6.308
					c10.002-5.497,11.834-17.271,13.276-26.732c0.781-5.136,1.592-10.453,3.424-13.426c1.802-2.974,4.926-5.797,8.26-8.771
					c6.518-5.887,14.658-13.216,14.658-24.87c0-2.103-0.27-4.025-0.691-5.917c24.57,5.437,46.136,18.863,61.815,37.455
					c-1.201,2.523-2.283,5.076-3.334,7.569c-1.892,4.535-3.815,9.191-6.067,11.804c-2.193,2.523-4.656,4.866-7.269,7.329
					c-6.698,6.368-14.297,13.576-16.46,24.69c-2.823,14.718,1.622,28.444,6.007,40.189
					C192.833,162.316,200.042,172.859,209.954,180.609z"/>
				<path style="fill:#2D213F;" d="M128.375,0C199.141,0,256.72,57.58,256.72,128.375c0,70.766-57.58,128.345-128.345,128.345
					C57.58,256.721,0,199.141,0,128.375C0,57.58,57.58,0,128.375,0z M230.319,176.013c6.788-14.478,10.603-30.637,10.603-47.638
					c0-20.995-5.797-40.669-15.829-57.52c-2.193,5.256-4.536,10.573-8.11,14.718c-2.733,3.154-5.587,5.857-8.38,8.5
					c-5.707,5.407-10.633,10.092-11.804,16.22c-1.862,9.642,0.631,19.253,5.256,31.628c4.566,12.195,10.002,20.275,17.661,26.252
					C223.05,170.817,226.624,173.55,230.319,176.013z M222.599,189.86c-4.596-3.004-8.831-6.248-12.645-9.251
					c-9.912-7.749-17.121-18.292-22.677-33.13c-4.385-11.744-8.831-25.471-6.007-40.189c2.163-11.113,9.762-18.322,16.46-24.69
					c2.613-2.463,5.076-4.806,7.269-7.329c2.253-2.613,4.175-7.269,6.067-11.804c1.051-2.493,2.133-5.046,3.334-7.569
					c-15.679-18.592-37.245-32.019-61.815-37.455c0.421,1.892,0.691,3.815,0.691,5.917c0,11.654-8.14,18.983-14.658,24.87
					c-3.334,2.974-6.458,5.797-8.26,8.771c-1.832,2.974-2.643,8.29-3.424,13.426c-1.442,9.461-3.274,21.236-13.276,26.732
					c-10.783,5.887-24.48,6.308-37.035,6.308c-0.991,0-2.012,0-3.004,0l-2.853-0.03c-14.207,0-28.685-3.634-40.729-10.212
					c-2.613-1.442-4.986-3.154-7.209-4.986c-4.535,12.195-7.029,25.381-7.029,39.137c0,24.81,8.11,47.758,21.776,66.41
					c2.763-1.201,5.437-2.373,7.96-3.725c3.004-1.652,6.458-5.377,9.792-8.951c6.968-7.449,14.838-15.889,26.312-15.889h2.883
					c14.117-0.03,31.718-0.09,43.372,6.278c10.092,5.527,11.594,18.262,12.946,29.466c0.661,5.707,1.442,12.165,3.244,15.108
					c1.772,2.883,4.235,5.707,6.878,8.711c2.883,3.274,5.917,6.788,8.35,10.783C185.595,229.027,207.942,212.207,222.599,189.86z
					 M142.372,240.021c-1.021-1.232-2.133-2.493-3.274-3.815c-2.944-3.364-6.037-6.848-8.5-10.903
					c-3.604-5.887-4.535-13.787-5.467-21.446c-0.751-6.338-1.862-15.889-4.836-17.511c-7.389-4.025-21.356-4.355-32.619-4.355
					c-1.081,0-2.103,0-3.124,0l-2.914,0.03c-4.596,0-9.762,5.527-14.748,10.873c-4.205,4.505-8.53,9.161-13.757,12.015
					c-1.652,0.901-3.274,1.682-4.896,2.403c20.425,20.725,48.809,33.611,80.137,33.611
					C133.121,240.922,137.777,240.591,142.372,240.021z M128.045,37.485c5.857-5.286,9.431-8.741,9.431-13.126
					c0-2.944-1.141-5.677-2.914-8.38c-2.042-0.12-4.115-0.18-6.187-0.18c-42.471,0-79.506,23.639-98.669,58.421
					c2.403,2.433,5.016,4.566,7.93,6.127c9.612,5.286,21.686,8.29,33.13,8.29l2.883,0.03c11.384,0,24.329,0.06,32.409-4.385
					c3.184-1.712,4.235-8.59,5.256-15.258c1.021-6.668,2.073-13.576,5.557-19.283C119.875,44.844,124.02,41.09,128.045,37.485z"/>
			</g>
		</g>
		<path style="fill:#94C949;" d="M127.108,38.338c0.312-0.282,0.625-0.574,0.937-0.853c5.857-5.286,9.431-8.741,9.431-13.126
			c0-2.944-1.141-5.677-2.914-8.38c-2.042-0.12-4.115-0.18-6.187-0.18c-7.365,0-14.55,0.754-21.521,2.112
			C113.555,23.804,120.398,30.583,127.108,38.338z"/>
		<path style="fill:#92C1CA;" d="M222.599,189.86c-4.596-3.004-8.831-6.248-12.645-9.251c-9.912-7.749-17.121-18.292-22.677-33.13
			c-4.385-11.744-8.831-25.471-6.007-40.189c2.163-11.113,9.762-18.322,16.46-24.69c2.613-2.463,5.076-4.806,7.269-7.329
			c2.253-2.613,4.175-7.269,6.067-11.804c1.051-2.493,2.133-5.046,3.334-7.569c-15.679-18.592-37.245-32.019-61.815-37.455
			c0.421,1.892,0.691,3.815,0.691,5.917c0,11.654-8.14,18.983-14.658,24.87c-0.547,0.49-1.072,0.967-1.604,1.448
			c27.97,37.729,50.413,94.464,43.457,177.377C197.549,219.097,212.066,205.917,222.599,189.86z"/>
	</g>
</g>
</svg>